# xmcd CD database file
#
# Track frame offsets:
#	188
#	18413
#	39338
#	68513
#	91088
#	106688
#	113063
#	132713
#	151838
#	172913
#	191588
#	208763
#
# Disc length: 3032 seconds
#
# Revision: 0
# Processed by: cddbd v1.5.2PL0 Copyright (c) Steve Scherf et al.
# Submitted via: CDex 1.51
#
DISCID=900bd60c
DTITLE=Sergio Peris - Antártida
DYEAR=1994
DGENRE=New Age
TTITLE0=Madre
TTITLE1=Para Ana
TTITLE2=Antártida
TTITLE3=Lluvia
TTITLE4=Lua Llena
TTITLE5=Stream
TTITLE6=Nana Para Una Noche Eterna
TTITLE7=Mundo Azul
TTITLE8=La Fuente
TTITLE9=Vuela con Nosotros
TTITLE10=Amanecer en la Albufera
TTITLE11=Despedida
EXTD=YEAR: 1994
EXTT0=
EXTT1=
EXTT2=
EXTT3=
EXTT4=
EXTT5=
EXTT6=
EXTT7=
EXTT8=
EXTT9=
EXTT10=
EXTT11=
PLAYORDER=
